<?xml version="1.0" encoding="iso-8859-1"?>
<!-- Generator: Adobe Illustrator 21.0.0, SVG Export Plug-In . SVG Version: 6.00 Build 0)  -->
<svg xmlns="http://www.w3.org/2000/svg" xmlns:xlink="http://www.w3.org/1999/xlink" version="1.1" id="Capa_1" x="0px" y="0px" viewBox="0 0 513.107 513.107" style="enable-background:new 0 0 513.107 513.107;" xml:space="preserve" width="512" height="512">
<g>
	<path style="fill:#00723F;" d="M125.261,437.156c-4.142,0-7.5-3.358-7.5-7.5v-38.382c0-4.143,3.358-7.5,7.5-7.5   c4.143,0,7.5,3.357,7.5,7.5v38.382C132.761,433.798,129.403,437.156,125.261,437.156z"/>
	<path style="fill:#FFDF65;" d="M346.161,296.832l-80.723-97.315c-1.64-1.977-4.184-2.977-6.724-2.651l-99.131,12.678   c-3.484,0.445-6.193,3.25-6.517,6.748l-3.823,41.289c-0.345,3.724,2.105,7.132,5.745,7.991l183.677,43.349   c0.574,0.135,1.151,0.201,1.724,0.201c2.555,0,4.985-1.31,6.373-3.549C348.462,302.832,348.22,299.313,346.161,296.832z"/>
	<path style="fill:#FFCD2C;" d="M154.989,265.571l183.677,43.349c0.574,0.135,1.151,0.201,1.724,0.201   c2.555,0,4.985-1.31,6.373-3.549c1.699-2.74,1.457-6.259-0.602-8.74l-21.505-25.925l-172.868-40.798l-2.544,27.471   C148.899,261.303,151.35,264.712,154.989,265.571z"/>
	<path style="fill:#FFDF65;" d="M485.605,28.909C466.748,8.535,445.06-1.158,421.165,0.11h0.001   c-28.483,1.504-52.458,19.053-67.555,33.51c-1.544,1.479-2.384,3.547-2.308,5.685c0.076,2.137,1.06,4.14,2.707,5.505l25.062,20.789   c2.876,2.388,7.071,2.291,9.836-0.225c8.614-7.839,21.637-17.328,34.754-18.021c9.335-0.481,18.241,3.985,27.224,13.693   c12.734,13.758,13.478,33.556,2.214,58.845c-1.368,3.071-0.525,6.678,2.063,8.824l25.576,21.216   c1.357,1.127,3.055,1.727,4.788,1.727c0.506,0,1.016-0.051,1.52-0.155c2.232-0.462,4.134-1.914,5.166-3.946l0.29-0.564   C522.222,87.664,505.155,50.032,485.605,28.909z"/>
	<g>
		<path style="fill:#FFCD2C;" d="M372.035,18.473c-7.062,4.901-13.262,10.204-18.424,15.147c-1.544,1.479-2.384,3.547-2.308,5.685    c0.076,2.137,1.06,4.14,2.707,5.505l25.062,20.789c2.876,2.388,7.071,2.291,9.836-0.225c5.747-5.23,13.461-11.181,21.852-14.778    L372.035,18.473z"/>
		<path style="fill:#FFCD2C;" d="M500.208,124.792l-39.354-32.644c-0.655,8.341-3.237,17.599-7.755,27.742    c-1.368,3.071-0.525,6.678,2.063,8.824l25.576,21.216c1.357,1.127,3.055,1.727,4.788,1.727c0.506,0,1.016-0.051,1.52-0.155    c2.232-0.462,4.134-1.914,5.166-3.946l0.29-0.564c3.686-7.359,6.651-14.382,8.982-21.083    C501.065,125.53,500.645,125.154,500.208,124.792z"/>
	</g>
	<path style="fill:#FF3D43;" d="M292.744,105.037L243.09,55.382c-1.407-1.406-3.314-2.196-5.304-2.196   c-1.989,0-3.896,0.79-5.304,2.196c-21.582,21.582-29.961,48.743-24.232,78.545c4.246,22.089,14.756,37.754,15.201,38.41   c1.255,1.851,3.271,3.044,5.497,3.255c0.236,0.022,0.473,0.033,0.708,0.033c1.98,0,3.891-0.784,5.304-2.196l57.784-57.784   C295.673,112.715,295.673,107.966,292.744,105.037z"/>
	<path style="fill:#D72E2E;" d="M254.083,151.415c-0.572-0.843-14.075-20.969-19.53-49.348c-3.253-16.924-2.959-33.184,0.771-48.457   c-1.058,0.368-2.033,0.964-2.841,1.771c-21.582,21.582-29.961,48.743-24.232,78.545c4.246,22.089,14.756,37.754,15.201,38.41   c1.255,1.851,3.271,3.044,5.497,3.255c0.236,0.022,0.473,0.033,0.708,0.033c1.98,0,3.891-0.784,5.304-2.196l20.451-20.451   C254.919,152.509,254.471,151.988,254.083,151.415z"/>
	<path style="fill:#FFBB64;" d="M511.401,172.763c-0.519-11.163-5.749-21.656-14.35-28.79L363.557,33.24   c-2.979-2.473-7.353-2.269-10.092,0.469L224.353,162.821c-2.738,2.738-2.941,7.111-0.469,10.092l110.732,133.495   c7.135,8.601,17.629,13.831,28.792,14.351c0.613,0.028,1.226,0.042,1.837,0.042c10.517,0,20.692-4.191,28.16-11.658l106.38-106.38   C507.686,194.86,511.921,183.925,511.401,172.763z"/>
	<path style="fill:#FFAD47;" d="M395.595,293.741c-0.661,0-1.324-0.015-1.987-0.045c-12.077-0.562-23.429-6.221-31.148-15.525   l-114.917-138.54l-23.19,23.19c-2.738,2.738-2.941,7.111-0.469,10.092l110.732,133.495c7.135,8.601,17.629,13.831,28.792,14.351   c0.613,0.028,1.226,0.042,1.837,0.042c10.517,0,20.692-4.191,28.16-11.658l18.694-18.694   C406.905,292.601,401.297,293.741,395.595,293.741z"/>
	<path style="fill:#A58260;" d="M247.466,502.12c-0.43-0.818-10.754-20.265-30.839-39.856   c-26.896-26.238-58.583-40.107-91.632-40.107s-64.735,13.869-91.633,40.106C13.278,481.855,2.953,501.301,2.523,502.12   c-1.222,2.325-1.138,5.119,0.221,7.366c1.358,2.248,3.793,3.621,6.419,3.621h231.663c2.626,0,5.061-1.373,6.419-3.621   C248.604,507.239,248.688,504.445,247.466,502.12z"/>
	<path style="fill:#8C6B50;" d="M247.466,502.12c-0.43-0.818-10.754-20.265-30.839-39.856   c-26.896-26.238-58.583-40.107-91.632-40.107c-7.702,0-15.328,0.763-22.839,2.25c24.717,4.896,48.165,17.733,68.793,37.857   c20.085,19.592,30.409,39.038,30.839,39.856c1.222,2.325,1.138,5.119-0.221,7.366c-1.358,2.248-3.793,3.621-6.419,3.621h45.678   c2.626,0,5.061-1.373,6.419-3.621C248.604,507.239,248.688,504.445,247.466,502.12z"/>
	<path style="fill:#45BF7F;" d="M110.574,328.553c-23.418-23.417-61.4-22.226-63.012-22.161c-3.914,0.151-7.052,3.29-7.203,7.203   c-0.063,1.605-1.257,39.591,22.163,63.012c20.844,20.844,53.229,22.189,61.229,22.189c0.988,0,1.604-0.021,1.781-0.027   c3.913-0.151,7.052-3.29,7.203-7.203C132.799,389.96,133.993,351.972,110.574,328.553z"/>
	<path style="fill:#00B76C;" d="M110.574,328.553c-23.418-23.417-61.4-22.226-63.012-22.161c-2.595,0.1-4.841,1.517-6.11,3.598   c11.375,3.022,24.077,8.53,34.111,18.563c23.419,23.419,22.225,61.406,22.162,63.012c-0.051,1.319-0.448,2.546-1.093,3.604   c12.257,3.257,22.97,3.626,27.12,3.626c0.988,0,1.604-0.021,1.781-0.027c3.913-0.151,7.052-3.29,7.203-7.203   C132.799,389.96,133.993,351.972,110.574,328.553z"/>
	<path style="fill:#45BF7F;" d="M210.124,313.595c-0.151-3.914-3.289-7.052-7.203-7.203c-1.607-0.059-39.593-1.256-63.012,22.161   c-23.419,23.42-22.224,61.406-22.161,63.012c0.151,3.914,3.29,7.052,7.203,7.203c0.177,0.007,0.792,0.027,1.781,0.027   c8.003,0,40.387-1.347,61.23-22.189C211.382,353.186,210.187,315.201,210.124,313.595z"/>
	<path style="fill:#00B76C;" d="M210.124,313.595c-0.151-3.914-3.289-7.052-7.203-7.203c-0.917-0.034-13.677-0.43-28.813,3.577   c0.653,1.063,1.055,2.298,1.106,3.626c0.063,1.605,1.258,39.591-22.161,63.011c-10.059,10.058-22.801,15.569-34.198,18.586   c1.271,2.069,3.511,3.476,6.096,3.576c0.177,0.007,0.792,0.027,1.781,0.027c8.003,0,40.387-1.347,61.23-22.189   C211.382,353.186,210.187,315.201,210.124,313.595z"/>
	<path style="fill:#FF3D43;" d="M167.676,214.687c-0.335-1.04-8.632-25.51-47.289-28.787c-4.11-0.337-7.698,2.659-8.099,6.744   l-7.83,80.151c-0.369,3.781,2.147,7.241,5.858,8.056c0.28,0.062,5.434,1.168,12.566,1.168c2.219,0,4.629-0.107,7.143-0.386   c14.794-1.642,26.227-8.356,33.066-19.419c0.608-0.985,0.981-2.099,1.088-3.252l3.823-41.289   C168.097,216.667,167.985,215.65,167.676,214.687z"/>
	<path style="fill:#D72E2E;" d="M133.752,244.464c-2.691,0.298-5.271,0.413-7.647,0.413c-7.636,0-13.153-1.185-13.453-1.251   c-2.132-0.468-3.89-1.756-5.005-3.47l-3.189,32.64c-0.369,3.781,2.147,7.241,5.858,8.056c0.28,0.062,5.434,1.168,12.566,1.168   c2.219,0,4.629-0.107,7.143-0.386c14.794-1.642,26.227-8.356,33.066-19.419c0.608-0.985,0.981-2.099,1.088-3.252l3-32.401   C159.725,236.68,148.252,242.855,133.752,244.464z"/>
</g>















</svg>
